<svg width="45" height="45" viewBox="0 0 62 62" fill="none" xmlns="http://www.w3.org/2000/svg">
    <path d="M54.7344 31H51.3438C51.0773 31 50.8594 31.218 50.8594 31.4844V50.8594H11.1406V11.1406H30.5156C30.782 11.1406 31 10.9227 31 10.6562V7.26562C31 6.99922 30.782 6.78125 30.5156 6.78125H8.71875C7.64707 6.78125 6.78125 7.64707 6.78125 8.71875V53.2812C6.78125 54.3529 7.64707 55.2188 8.71875 55.2188H53.2812C54.3529 55.2188 55.2188 54.3529 55.2188 53.2812V31.4844C55.2188 31.218 55.0008 31 54.7344 31Z" fill="#C4C4C4"/>
    <path d="M21.5486 32.3865L21.4336 39.5855C21.4275 40.1244 21.8635 40.5664 22.4023 40.5664H22.4265L29.5711 40.3908C29.6922 40.3848 29.8133 40.3363 29.898 40.2516L55.0795 15.1246C55.2672 14.9369 55.2672 14.6281 55.0795 14.4404L47.5535 6.92051C47.4566 6.82363 47.3355 6.78125 47.2084 6.78125C47.0812 6.78125 46.9601 6.82969 46.8633 6.92051L21.6879 32.0475C21.6004 32.1389 21.5507 32.26 21.5486 32.3865V32.3865ZM25.3933 33.8154L47.2084 12.0488L49.9451 14.7795L28.118 36.5582L25.351 36.6248L25.3933 33.8154V33.8154Z" fill="#C4C4C4"/>
</svg>