<svg width="30" height="30" viewBox="0 0 45 42" fill="none" xmlns="http://www.w3.org/2000/svg">
<path fill-rule="evenodd" clip-rule="evenodd" d="M5.29167 14.75C3.98769 14.75 2.73711 14.311 1.81506 13.5296C0.893004 12.7482 0.375 11.6884 0.375 10.5833V4.33329C0.375 3.22822 0.893004 2.16842 1.81506 1.38701C2.73711 0.605613 3.98769 0.166626 5.29167 0.166626H15.125C16.429 0.166626 17.6796 0.605613 18.6016 1.38701C19.5237 2.16842 20.0417 3.22822 20.0417 4.33329V10.5833C20.0417 11.6884 19.5237 12.7482 18.6016 13.5296C17.6796 14.311 16.429 14.75 15.125 14.75H5.29167ZM5.29167 41.8333C3.98769 41.8333 2.73711 41.3943 1.81506 40.6129C0.893004 39.8315 0.375 38.7717 0.375 37.6666V21C0.375 19.8949 0.893004 18.8351 1.81506 18.0537C2.73711 17.2723 3.98769 16.8333 5.29167 16.8333H15.125C16.429 16.8333 17.6796 17.2723 18.6016 18.0537C19.5237 18.8351 20.0417 19.8949 20.0417 21V37.6666C20.0417 38.7717 19.5237 39.8315 18.6016 40.6129C17.6796 41.3943 16.429 41.8333 15.125 41.8333H5.29167ZM29.875 41.8333C28.571 41.8333 27.3204 41.3943 26.3984 40.6129C25.4763 39.8315 24.9583 38.7717 24.9583 37.6666V33.5C24.9583 32.3949 25.4763 31.3351 26.3984 30.5537C27.3204 29.7723 28.571 29.3333 29.875 29.3333H39.7083C41.0123 29.3333 42.2629 29.7723 43.1849 30.5537C44.107 31.3351 44.625 32.3949 44.625 33.5V37.6666C44.625 38.7717 44.107 39.8315 43.1849 40.6129C42.2629 41.3943 41.0123 41.8333 39.7083 41.8333H29.875ZM29.875 25.1666C28.571 25.1666 27.3204 24.7276 26.3984 23.9462C25.4763 23.1648 24.9583 22.105 24.9583 21V4.33329C24.9583 3.22822 25.4763 2.16842 26.3984 1.38701C27.3204 0.605613 28.571 0.166626 29.875 0.166626H39.7083C41.0123 0.166626 42.2629 0.605613 43.1849 1.38701C44.107 2.16842 44.625 3.22822 44.625 4.33329V21C44.625 22.105 44.107 23.1648 43.1849 23.9462C42.2629 24.7276 41.0123 25.1666 39.7083 25.1666H29.875Z" fill="#C4C4C4"/>
</svg>
