<svg width="43" height="40" viewBox="0 0 63 49" fill="none" xmlns="http://www.w3.org/2000/svg">
    <path fill-rule="evenodd" clip-rule="evenodd" d="M31.3582 0.821686C19.6363 0.821686 9.42243 7.31819 6.47324 16.5482H4.30762C3.73357 16.5489 3.1666 16.671 2.64643 16.9061C2.12627 17.1412 1.66548 17.4836 1.29636 17.9093C0.927246 18.335 0.658722 18.8336 0.509604 19.3704C0.360485 19.9071 0.33438 20.469 0.433117 21.0165L1.43324 26.5827C1.67158 27.9098 2.38602 29.1127 3.45065 29.9796C4.51528 30.8466 5.86178 31.3218 7.25287 31.3217H8.28843C9.46968 33.2775 10.9974 35.0503 12.7969 36.5906L9.92643 46.0341C9.84011 46.3185 9.82346 46.6184 9.87779 46.91C9.93211 47.2017 10.0559 47.4771 10.2394 47.7143C10.4229 47.9515 10.6609 48.1441 10.9347 48.2766C11.2084 48.4092 11.5103 48.4781 11.8164 48.4779H19.6914C20.0977 48.478 20.4939 48.3564 20.826 48.1298C21.158 47.9032 21.4095 47.5826 21.546 47.2122L23.4439 42.0615C25.9442 42.7211 28.602 43.0794 31.3622 43.0794C34.146 43.0794 36.8274 42.7172 39.3474 42.0424L41.4855 47.2732C41.6308 47.6286 41.883 47.9335 42.2095 48.1483C42.536 48.3632 42.9217 48.478 43.3164 48.4779H51.1914C51.4986 48.4776 51.8015 48.4077 52.0758 48.2738C52.3501 48.1399 52.5882 47.9457 52.7712 47.7067C52.9541 47.4677 53.0767 47.1906 53.1292 46.8975C53.1817 46.6044 53.1626 46.3035 53.0736 46.0189L50.0771 36.4647C54.3769 32.7247 57.0937 27.6312 57.0937 21.9506C57.0937 21.3977 57.0662 20.8449 57.015 20.3074C58.0427 19.888 59.0152 19.2932 59.7909 18.6146C61.0312 19.7812 63 19.7812 63 17.0248C63 17.875 61.0312 17.875 61.1848 16.9257C61.3502 16.6196 61.4695 16.2923 61.5392 15.9535C61.6318 15.5119 61.6074 15.0548 61.4683 14.6249C61.3293 14.1949 61.08 13.806 60.7438 13.4944C60.3892 13.1406 59.9227 12.9116 59.4183 12.8439C58.9139 12.7762 58.4006 12.8737 57.96 13.1208C57.5548 13.3376 57.2093 13.6453 56.9524 14.0181C56.6955 14.3909 56.5346 14.818 56.4834 15.2634C56.3889 16.1899 56.8063 17.0934 57.7434 17.7568C57.4182 17.9745 57.0774 18.1694 56.7236 18.3401C54.621 8.18362 43.7929 0.821686 31.3582 0.821686V0.821686ZM59.6019 15.5989C59.5318 15.8888 59.4004 16.1614 59.2161 16.3996C59.1571 16.3698 59.0994 16.338 59.0428 16.3042C58.4679 15.9611 58.4246 15.6371 58.4443 15.4541C58.4637 15.3173 58.5153 15.1866 58.5952 15.0722C58.6751 14.9579 58.7811 14.8628 58.905 14.7945C59.0979 14.6916 59.22 14.7144 59.3499 14.8402C59.4594 14.9324 59.5408 15.0518 59.5852 15.1856C59.6296 15.3193 59.6354 15.4622 59.6019 15.5989V15.5989ZM24.1684 13.1208C26.5067 12.4758 28.9269 12.1512 31.3582 12.1562C33.9806 12.1562 36.4888 12.5261 38.8119 13.1971C39.0614 13.2747 39.3243 13.3034 39.5853 13.2814C39.8464 13.2594 40.1002 13.1871 40.3321 13.0689C40.5639 12.9507 40.769 12.7888 40.9354 12.5929C41.1018 12.3969 41.2261 12.1707 41.301 11.9276C41.376 11.6845 41.4001 11.4294 41.3719 11.1772C41.3437 10.9249 41.2638 10.6807 41.1368 10.4588C41.0099 10.2368 40.8385 10.0417 40.6326 9.8847C40.4268 9.72774 40.1906 9.61214 39.9381 9.54469C37.1535 8.74332 34.2632 8.33877 31.3582 8.34375C28.4681 8.34375 25.6843 8.73644 23.0816 9.457C22.5793 9.59654 22.1548 9.92356 21.9016 10.3661C21.6483 10.8087 21.5869 11.3306 21.7311 11.8169C21.8752 12.3033 22.2129 12.7143 22.67 12.9595C23.1271 13.2048 23.6661 13.2642 24.1684 13.1246V13.1208ZM19.6875 18.8281C19.6875 19.5865 19.3764 20.3138 18.8225 20.85C18.2687 21.3862 17.5176 21.6875 16.7344 21.6875C15.9512 21.6875 15.2 21.3862 14.6462 20.85C14.0924 20.3138 13.7812 19.5865 13.7812 18.8281C13.7812 18.0698 14.0924 17.3425 14.6462 16.8062C15.2 16.27 15.9512 15.9687 16.7344 15.9687C17.5176 15.9687 18.2687 16.27 18.8225 16.8062C19.3764 17.3425 19.6875 18.0698 19.6875 18.8281V18.8281Z" fill="#C4C4C4"/>
</svg>