<svg width="40" height="40" viewBox="0 0 40 40" fill="none" xmlns="http://www.w3.org/2000/svg">
    <path d="M21.789 20L27.189 14.6C27.371 14.3874 27.4662 14.114 27.4554 13.8344C27.4446 13.5548 27.3286 13.2895 27.1307 13.0916C26.9329 12.8937 26.6676 12.7778 26.388 12.767C26.1083 12.7562 25.8349 12.8513 25.6223 13.0333L20.2223 18.3778L14.789 12.9445C14.5764 12.7624 14.303 12.6673 14.0234 12.6781C13.7438 12.6889 13.4785 12.8048 13.2806 13.0027C13.0827 13.2006 12.9668 13.4659 12.956 13.7455C12.9452 14.0251 13.0403 14.2986 13.2223 14.5111L18.6446 20L13.3335 25.2445C13.2171 25.3441 13.1227 25.4666 13.056 25.6045C12.9893 25.7423 12.9518 25.8925 12.9459 26.0455C12.94 26.1985 12.9658 26.3511 13.0216 26.4937C13.0775 26.6363 13.1622 26.7658 13.2705 26.8741C13.3788 26.9823 13.5083 27.0671 13.6509 27.1229C13.7935 27.1788 13.946 27.2046 14.0991 27.1987C14.2521 27.1928 14.4022 27.1553 14.5401 27.0886C14.6779 27.0219 14.8005 26.9274 14.9001 26.8111L20.2001 21.5111L25.4668 26.7778C25.6793 26.9598 25.9528 27.0549 26.2324 27.0441C26.512 27.0333 26.7773 26.9174 26.9752 26.7195C27.1731 26.5216 27.289 26.2564 27.2998 25.9767C27.3106 25.6971 27.2155 25.4237 27.0335 25.2111L21.789 20Z" fill="black" fill-opacity="0.47"/>
</svg>
