<svg width="38" height="33" viewBox="0 0 48 43" fill="none" xmlns="http://www.w3.org/2000/svg">
<path d="M45.5034 35.126V37.4548C45.5034 40.0164 43.2656 42.1123 40.5306 42.1123H5.72108C2.96118 42.1123 0.748291 40.0164 0.748291 37.4548V4.85189C0.748291 2.29023 2.96118 0.194336 5.72108 0.194336H40.5306C43.2656 0.194336 45.5034 2.29023 45.5034 4.85189V7.18066H23.1258C20.3659 7.18066 18.153 9.27656 18.153 11.8382V30.4684C18.153 33.0301 20.3659 35.126 23.1258 35.126H45.5034ZM23.1258 30.4684H47.9898V11.8382H23.1258V30.4684ZM33.0714 24.6465C31.0077 24.6465 29.3418 23.0862 29.3418 21.1533C29.3418 19.2204 31.0077 17.6602 33.0714 17.6602C35.1351 17.6602 36.801 19.2204 36.801 21.1533C36.801 23.0862 35.1351 24.6465 33.0714 24.6465Z" fill="#C4C4C4"/>
</svg>
