<svg width="30" height="30" viewBox="0 0 40 40" fill="none" xmlns="http://www.w3.org/2000/svg">
    <path d="M32.3333 12.2333L27.7667 7.66667C27.1707 7.10683 26.3897 6.78561 25.5722 6.76409C24.7548 6.74258 23.958 7.02229 23.3333 7.55001L8.33334 22.55C7.79462 23.0933 7.45918 23.8053 7.38334 24.5667L6.66667 31.5167C6.64422 31.7608 6.6759 32.0068 6.75944 32.2373C6.84299 32.4678 6.97634 32.677 7.15001 32.85C7.30574 33.0045 7.49043 33.1267 7.6935 33.2096C7.89656 33.2926 8.114 33.3346 8.33334 33.3333H8.48334L15.4333 32.7C16.1947 32.6242 16.9067 32.2887 17.45 31.75L32.45 16.75C33.0322 16.135 33.3468 15.3142 33.325 14.4676C33.3031 13.6209 32.9465 12.8175 32.3333 12.2333V12.2333ZM15.1333 29.3667L10.1333 29.8333L10.5833 24.8333L20 15.5333L24.5 20.0333L15.1333 29.3667ZM26.6667 17.8L22.2 13.3333L25.45 10L30 14.55L26.6667 17.8Z" fill="black" fill-opacity="0.47"/>
</svg>