<svg width="40" height="39" viewBox="0 0 51 49" fill="none" xmlns="http://www.w3.org/2000/svg">
<path d="M5.16665 10.25H0.083313V43.5C0.083313 46.1125 2.37081 48.25 5.16665 48.25H40.75V43.5H5.16665V10.25ZM45.8333 0.75H15.3333C12.5375 0.75 10.25 2.8875 10.25 5.5V34C10.25 36.6125 12.5375 38.75 15.3333 38.75H45.8333C48.6291 38.75 50.9166 36.6125 50.9166 34V5.5C50.9166 2.8875 48.6291 0.75 45.8333 0.75ZM45.8333 34H15.3333V5.5H45.8333V34ZM29.3379 20.13C30.38 18.3962 32.3371 17.375 33.4808 15.855C34.7008 14.24 34.0146 11.2475 30.5833 11.2475C28.3466 11.2475 27.2283 12.8387 26.7708 14.1687L23.2887 12.815C24.2546 10.155 26.8216 7.875 30.5579 7.875C33.6841 7.875 35.8446 9.205 36.9375 10.8675C37.8779 12.2925 38.4116 14.9762 36.9629 16.9713C35.3616 19.18 33.8366 19.845 32.9979 21.27C32.6675 21.84 32.5404 22.22 32.5404 24.0725H28.6771C28.7025 23.0987 28.5246 21.5075 29.3379 20.13ZM27.9146 29.1313C27.9146 27.73 29.1091 26.6612 30.5833 26.6612C32.0829 26.6612 33.2266 27.73 33.2266 29.1313C33.2266 30.5087 32.1083 31.625 30.5833 31.625C29.1091 31.625 27.9146 30.5087 27.9146 29.1313Z" fill="#C4C4C4"/>
</svg>
