<svg width="38" height="38" viewBox="0 0 51 51" fill="none" xmlns="http://www.w3.org/2000/svg">
<path d="M44.5952 5.37903H33.1144C31.9609 2.48469 28.9396 0.388794 25.369 0.388794C21.7985 0.388794 18.7772 2.48469 17.6236 5.37903H6.14285C3.1216 5.37903 0.649658 7.62463 0.649658 10.3693V45.3009C0.649658 48.0455 3.1216 50.2911 6.14285 50.2911H44.5952C47.6165 50.2911 50.0884 48.0455 50.0884 45.3009V10.3693C50.0884 7.62463 47.6165 5.37903 44.5952 5.37903ZM25.369 5.37903C26.8797 5.37903 28.1156 6.50183 28.1156 7.87415C28.1156 9.24646 26.8797 10.3693 25.369 10.3693C23.8584 10.3693 22.6224 9.24646 22.6224 7.87415C22.6224 6.50183 23.8584 5.37903 25.369 5.37903ZM30.8622 40.3107H11.6361V35.3204H30.8622V40.3107ZM39.102 30.3302H11.6361V25.34H39.102V30.3302ZM39.102 20.3497H11.6361V15.3595H39.102V20.3497Z" fill="#C4C4C4"/>
</svg>
